<?xml version="1.0" encoding="utf-8"?>
<!-- Generator: Adobe Illustrator 19.2.1, SVG Export Plug-In . SVG Version: 6.00 Build 0)  -->
<svg version="1.1"
	 id="svg4168" inkscape:version="0.91 r13725" sodipodi:docname="com.github.bartzaalberg.lottery.svg" xmlns:cc="http://creativecommons.org/ns#" xmlns:dc="http://purl.org/dc/elements/1.1/" xmlns:inkscape="http://www.inkscape.org/namespaces/inkscape" xmlns:rdf="http://www.w3.org/1999/02/22-rdf-syntax-ns#" xmlns:sodipodi="http://sodipodi.sourceforge.net/DTD/sodipodi-0.dtd" xmlns:svg="http://www.w3.org/2000/svg"
	 xmlns="http://www.w3.org/2000/svg" xmlns:xlink="http://www.w3.org/1999/xlink" x="0px" y="0px" viewBox="0 0 64 64"
	 style="enable-background:new 0 0 64 64;" xml:space="preserve">
<style type="text/css">
	.st0{opacity:0.51;}
	.st1{fill:url(#SVGID_1_);}
	.st2{fill:url(#SVGID_2_);stroke:#CD0000;stroke-width:0.25;stroke-miterlimit:10;}
	.st3{opacity:0.29;}
	.st4{fill:url(#SVGID_3_);}
</style>
<defs>
	
	
		<inkscape:perspective  id="perspective4256" inkscape:persp3d-origin="162.20297 : 39.086769 : 1" inkscape:vp_x="-67.756526 : 86.571292 : 1" inkscape:vp_y="0 : 4451.6742 : 0" inkscape:vp_z="392.16249 : 86.571292 : 1" sodipodi:type="inkscape:persp3d">
		</inkscape:perspective>
</defs>
<sodipodi:namedview  bordercolor="#666666" borderopacity="1.0" id="base" inkscape:current-layer="layer1" inkscape:cx="34.818399" inkscape:cy="33.647209" inkscape:document-units="px" inkscape:grid-bbox="true" inkscape:pageopacity="0.0" inkscape:pageshadow="2" inkscape:window-height="1017" inkscape:window-maximized="1" inkscape:window-width="1920" inkscape:window-x="0" inkscape:window-y="30" inkscape:zoom="6.7829408" pagecolor="#ffffff" showgrid="true">
	</sodipodi:namedview>
<sodipodi:namedview  bordercolor="#666666" borderopacity="1.0" id="base" inkscape:current-layer="layer1" inkscape:cx="204.31622" inkscape:cy="-59.481829" inkscape:document-units="px" inkscape:grid-bbox="true" inkscape:pageopacity="0.0" inkscape:pageshadow="2" inkscape:window-height="1017" inkscape:window-maximized="1" inkscape:window-width="1920" inkscape:window-x="0" inkscape:window-y="30" inkscape:zoom="0.97227183" pagecolor="#ffffff" showgrid="true">
	</sodipodi:namedview>
<sodipodi:namedview  bordercolor="#666666" borderopacity="1.0" id="base" inkscape:current-layer="layer1" inkscape:cx="204.31622" inkscape:cy="-59.481829" inkscape:document-units="px" inkscape:grid-bbox="true" inkscape:pageopacity="0.0" inkscape:pageshadow="2" inkscape:window-height="1017" inkscape:window-maximized="1" inkscape:window-width="1920" inkscape:window-x="0" inkscape:window-y="30" inkscape:zoom="0.97227183" pagecolor="#ffffff" showgrid="true">
	</sodipodi:namedview>
<g class="st0">
	
		<radialGradient id="SVGID_1_" cx="28.4163" cy="70.3858" r="25.1846" gradientTransform="matrix(1.1538 0 0 0.1816 -0.7941 45.7499)" gradientUnits="userSpaceOnUse">
		<stop  offset="0" style="stop-color:#000000;stop-opacity:0.5"/>
		<stop  offset="8.904086e-002" style="stop-color:#0D0D0D;stop-opacity:0.5445"/>
		<stop  offset="0.2528" style="stop-color:#2E2E2E;stop-opacity:0.6264"/>
		<stop  offset="0.4731" style="stop-color:#656565;stop-opacity:0.7366"/>
		<stop  offset="0.7382" style="stop-color:#AFAFAF;stop-opacity:0.8691"/>
		<stop  offset="1" style="stop-color:#FFFFFF"/>
	</radialGradient>
	<ellipse class="st1" cx="32.2" cy="58.5" rx="29" ry="4.6"/>
</g>
<radialGradient id="SVGID_2_" cx="40.8566" cy="18.6096" r="30.2167" gradientUnits="userSpaceOnUse">
	<stop  offset="0" style="stop-color:#FF7591"/>
	<stop  offset="1" style="stop-color:#FF0033"/>
</radialGradient>
<circle class="st2" cx="32" cy="31.1" r="30.2"/>
<path class="st3" d="M54.3,23.5c0,0.1,0,0.3,0,0.4c-1,4-1.9,8.2-2.9,12.6c-0.1,0.7-0.7,1.2-1.3,1.3c-5.9,0.7-11.8,1.1-17.8,1.1
	c0,0,0,0,0,0c-6,0-12-0.3-17.8-1c-0.6-0.1-1.1-0.6-1.3-1.3c-1-4.4-1.9-8.6-2.9-12.7c0-0.1,0-0.3,0-0.4c-1.1-0.3-1.9-1.2-1.9-2.5
	c0-1.5,1.2-3.1,2.8-3.4c1.5-0.3,2.8,0.8,2.8,2.6c0,1-0.4,1.9-1,2.5c1.2,1.2,2.4,2.5,3.7,3.9c0.9,1,2.2,1.7,3.6,1.6
	c1.6,0,3.1-0.9,4-2.5c2-3.3,4.1-6.7,6.1-10.1c-0.5-0.6-0.8-1.5-0.8-2.5c0-1.9,1.3-3.6,2.9-3.6c1.6,0,2.9,1.6,2.9,3.6
	c0,0.9-0.3,1.8-0.8,2.4c0,0,0,0,0,0c2,3.4,4.1,6.8,6.1,10.1c0.9,1.6,2.5,2.5,4,2.5c1.3,0,2.6-0.6,3.5-1.6c1.2-1.4,2.5-2.7,3.7-3.9
	c-0.6-0.6-1-1.6-1-2.5c0-1.7,1.3-2.9,2.8-2.6c1.5,0.3,2.8,1.9,2.8,3.4C56.2,22.3,55.4,23.2,54.3,23.5z M51.1,42.3
	c0-0.8-0.6-1.4-1.3-1.3c-11.5,1.8-23.5,1.8-34.9,0c-0.7-0.1-1.3,0.5-1.3,1.3c0,1.2,0,2.4,0,3.5c0,0.8,0.6,1.6,1.3,1.8
	c11.5,2.8,23.5,2.8,34.9,0c0.7-0.2,1.3-1,1.3-1.8C51.1,44.7,51.1,43.5,51.1,42.3z"/>
<radialGradient id="SVGID_3_" cx="45.2849" cy="14.356" r="49.3478" gradientUnits="userSpaceOnUse">
	<stop  offset="0" style="stop-color:#FFFFFF"/>
	<stop  offset="1" style="stop-color:#FFCC66"/>
</radialGradient>
<path class="st4" d="M54.1,23.8c0,0.1,0,0.3,0,0.4c-1,4-1.9,8.2-2.9,12.6c-0.1,0.7-0.7,1.2-1.3,1.3C44,38.7,38,39.1,32.1,39.1
	c0,0,0,0,0,0c-6,0-12-0.3-17.8-1c-0.6-0.1-1.1-0.6-1.3-1.3c-1-4.4-1.9-8.6-2.9-12.7c0-0.1,0-0.3,0-0.4c-1.1-0.3-1.9-1.2-1.9-2.5
	c0-1.5,1.2-3.1,2.8-3.4c1.5-0.3,2.8,0.8,2.8,2.6c0,1-0.4,1.9-1,2.5c1.2,1.2,2.4,2.5,3.7,3.9c0.9,1,2.2,1.7,3.6,1.6
	c1.6,0,3.1-0.9,4-2.5c2-3.3,4.1-6.7,6.1-10.1c-0.5-0.6-0.8-1.5-0.8-2.5c0-1.9,1.3-3.6,2.9-3.6c1.6,0,2.9,1.6,2.9,3.6
	c0,0.9-0.3,1.8-0.8,2.4c0,0,0,0,0,0c2,3.4,4.1,6.8,6.1,10.1c0.9,1.6,2.5,2.5,4,2.5c1.3,0,2.6-0.6,3.5-1.6c1.2-1.4,2.5-2.7,3.7-3.9
	c-0.6-0.6-1-1.6-1-2.5c0-1.7,1.3-2.9,2.8-2.6c1.5,0.3,2.8,1.9,2.8,3.4C55.9,22.5,55.2,23.5,54.1,23.8z M50.9,42.6
	c0-0.8-0.6-1.4-1.3-1.3c-11.5,1.8-23.5,1.8-34.9,0c-0.7-0.1-1.3,0.5-1.3,1.3c0,1.2,0,2.4,0,3.5c0,0.8,0.6,1.6,1.3,1.8
	c11.5,2.8,23.5,2.8,34.9,0c0.7-0.2,1.3-1,1.3-1.8C50.9,44.9,50.9,43.8,50.9,42.6z"/>
</svg>
