<?xml version="1.0" encoding="utf-8"?>
<!-- Generator: Adobe Illustrator 19.2.1, SVG Export Plug-In . SVG Version: 6.00 Build 0)  -->
<svg version="1.1"
	 id="svg5875" inkscape:version="0.91 r13725" sodipodi:docname="lottery.crown.svg" xmlns:cc="http://creativecommons.org/ns#" xmlns:dc="http://purl.org/dc/elements/1.1/" xmlns:inkscape="http://www.inkscape.org/namespaces/inkscape" xmlns:rdf="http://www.w3.org/1999/02/22-rdf-syntax-ns#" xmlns:sodipodi="http://sodipodi.sourceforge.net/DTD/sodipodi-0.dtd" xmlns:svg="http://www.w3.org/2000/svg"
	 xmlns="http://www.w3.org/2000/svg" xmlns:xlink="http://www.w3.org/1999/xlink" x="0px" y="0px" viewBox="0 0 64 64"
	 style="enable-background:new 0 0 64 64;" xml:space="preserve">
<style type="text/css">
	.st0{fill:url(#SVGID_1_);}
	.st1{fill:url(#SVGID_2_);}
	.st2{fill:url(#SVGID_3_);}
	.st3{fill:url(#SVGID_4_);}
	.st4{fill:url(#SVGID_5_);}
	.st5{fill:url(#SVGID_6_);}
	.st6{opacity:0.29;}
	.st7{fill:url(#SVGID_7_);}
</style>
<g>
	
		<radialGradient id="SVGID_1_" cx="28.2957" cy="73.5304" r="14.7395" gradientTransform="matrix(1.1538 0 0 0.1816 -0.7941 45.7499)" gradientUnits="userSpaceOnUse">
		<stop  offset="0" style="stop-color:#000000;stop-opacity:0.5"/>
		<stop  offset="8.904086e-002" style="stop-color:#0D0D0D;stop-opacity:0.5445"/>
		<stop  offset="0.2528" style="stop-color:#2E2E2E;stop-opacity:0.6264"/>
		<stop  offset="0.4731" style="stop-color:#656565;stop-opacity:0.7366"/>
		<stop  offset="0.7382" style="stop-color:#AFAFAF;stop-opacity:0.8691"/>
		<stop  offset="1" style="stop-color:#FFFFFF"/>
	</radialGradient>
	<ellipse class="st0" cx="32" cy="59.1" rx="17" ry="2.7"/>
</g>
<g>
	
		<radialGradient id="SVGID_2_" cx="38.7549" cy="8.0582" r="14.7395" gradientTransform="matrix(1.1538 0 0 0.1816 -0.7941 45.7499)" gradientUnits="userSpaceOnUse">
		<stop  offset="0" style="stop-color:#000000;stop-opacity:0.5"/>
		<stop  offset="8.904086e-002" style="stop-color:#0D0D0D;stop-opacity:0.5445"/>
		<stop  offset="0.2528" style="stop-color:#2E2E2E;stop-opacity:0.6264"/>
		<stop  offset="0.4731" style="stop-color:#656565;stop-opacity:0.7366"/>
		<stop  offset="0.7382" style="stop-color:#AFAFAF;stop-opacity:0.8691"/>
		<stop  offset="1" style="stop-color:#FFFFFF"/>
	</radialGradient>
	<ellipse class="st1" cx="44.1" cy="47.2" rx="17" ry="2.7"/>
</g>
<g>
	
		<radialGradient id="SVGID_3_" cx="18.7165" cy="-42.3051" r="14.7395" gradientTransform="matrix(1.1538 0 0 0.1816 -0.7941 45.7499)" gradientUnits="userSpaceOnUse">
		<stop  offset="0" style="stop-color:#000000;stop-opacity:0.5"/>
		<stop  offset="8.904086e-002" style="stop-color:#0D0D0D;stop-opacity:0.5445"/>
		<stop  offset="0.2528" style="stop-color:#2E2E2E;stop-opacity:0.6264"/>
		<stop  offset="0.4731" style="stop-color:#656565;stop-opacity:0.7366"/>
		<stop  offset="0.7382" style="stop-color:#AFAFAF;stop-opacity:0.8691"/>
		<stop  offset="1" style="stop-color:#FFFFFF"/>
	</radialGradient>
	<ellipse class="st2" cx="20.9" cy="38.1" rx="17" ry="2.7"/>
</g>
<radialGradient id="SVGID_4_" cx="26.1306" cy="13.064" r="17.6845" gradientUnits="userSpaceOnUse">
	<stop  offset="4.838710e-002" style="stop-color:#D3B6B6"/>
	<stop  offset="1" style="stop-color:#660000"/>
</radialGradient>
<circle class="st3" cx="20.9" cy="20.4" r="17.7"/>
<sodipodi:namedview  bordercolor="#666666" borderopacity="1.0" id="base" inkscape:current-layer="layer1" inkscape:cx="204.31622" inkscape:cy="-59.481829" inkscape:document-units="px" inkscape:grid-bbox="true" inkscape:pageopacity="0.0" inkscape:pageshadow="2" inkscape:window-height="1017" inkscape:window-maximized="1" inkscape:window-width="1920" inkscape:window-x="0" inkscape:window-y="30" inkscape:zoom="0.97227183" pagecolor="#ffffff" showgrid="true">
	</sodipodi:namedview>
<radialGradient id="SVGID_5_" cx="50.9603" cy="22.2112" r="17.6845" gradientUnits="userSpaceOnUse">
	<stop  offset="0" style="stop-color:#E2C6E2"/>
	<stop  offset="1" style="stop-color:#993399"/>
</radialGradient>
<circle class="st4" cx="45.8" cy="29.5" r="17.7"/>
<sodipodi:namedview  bordercolor="#666666" borderopacity="1.0" id="base" inkscape:current-layer="layer1" inkscape:cx="204.31622" inkscape:cy="-59.481829" inkscape:document-units="px" inkscape:grid-bbox="true" inkscape:pageopacity="0.0" inkscape:pageshadow="2" inkscape:window-height="1017" inkscape:window-maximized="1" inkscape:window-width="1920" inkscape:window-x="0" inkscape:window-y="30" inkscape:zoom="0.97227183" pagecolor="#ffffff" showgrid="true">
	</sodipodi:namedview>
<radialGradient id="SVGID_6_" cx="37.1834" cy="34.1025" r="17.6845" gradientUnits="userSpaceOnUse">
	<stop  offset="0.2097" style="stop-color:#FFB2C2"/>
	<stop  offset="1" style="stop-color:#FF0033"/>
</radialGradient>
<circle class="st5" cx="32" cy="41.4" r="17.7"/>
<path class="st6" d="M45.1,37c0,0.1,0,0.2,0,0.2c-0.6,2.3-1.1,4.8-1.7,7.4c-0.1,0.4-0.4,0.7-0.7,0.7c-3.4,0.4-6.9,0.6-10.4,0.6
	c0,0,0,0,0,0c-3.5,0-7-0.2-10.4-0.6c-0.4,0-0.7-0.3-0.8-0.7c-0.6-2.6-1.1-5.1-1.7-7.4c0-0.1,0-0.2,0-0.2c-0.7-0.1-1.1-0.7-1.1-1.4
	c0-0.9,0.7-1.8,1.6-2c0.9-0.2,1.6,0.5,1.6,1.5c0,0.6-0.2,1.1-0.6,1.5c0.7,0.7,1.4,1.5,2.1,2.3c0.5,0.6,1.3,1,2.1,1
	c0.9,0,1.8-0.5,2.4-1.4c1.2-1.9,2.4-3.9,3.6-5.9c-0.3-0.4-0.5-0.9-0.5-1.4c0-1.1,0.7-2.1,1.7-2.1c0.9,0,1.7,1,1.7,2.1
	c0,0.5-0.2,1-0.5,1.4c0,0,0,0,0,0c1.2,2,2.4,4,3.6,5.9c0.6,0.9,1.4,1.5,2.4,1.5c0.8,0,1.5-0.3,2.1-0.9c0.7-0.8,1.4-1.6,2.2-2.3
	c-0.4-0.4-0.6-0.9-0.6-1.5c0-1,0.7-1.7,1.6-1.5c0.9,0.2,1.6,1.1,1.6,2C46.1,36.3,45.7,36.8,45.1,37z M43.2,48c0-0.5-0.3-0.8-0.8-0.7
	c-6.7,1-13.7,1-20.4,0c-0.4-0.1-0.8,0.3-0.8,0.7c0,0.7,0,1.4,0,2.1c0,0.5,0.3,1,0.8,1.1c6.7,1.6,13.7,1.6,20.4,0
	c0.4-0.1,0.8-0.6,0.8-1.1C43.2,49.4,43.2,48.7,43.2,48z"/>
<radialGradient id="SVGID_7_" cx="39.7751" cy="31.6131" r="28.8812" gradientUnits="userSpaceOnUse">
	<stop  offset="0" style="stop-color:#FFFFFF"/>
	<stop  offset="1" style="stop-color:#FFCC66"/>
</radialGradient>
<path class="st7" d="M44.9,37.1c0,0.1,0,0.2,0,0.2c-0.6,2.3-1.1,4.8-1.7,7.4c-0.1,0.4-0.4,0.7-0.7,0.7c-3.4,0.4-6.9,0.6-10.4,0.6
	c0,0,0,0,0,0c-3.5,0-7-0.2-10.4-0.6c-0.4,0-0.7-0.3-0.8-0.7c-0.6-2.6-1.1-5.1-1.7-7.4c0-0.1,0-0.2,0-0.2C18.5,37,18,36.4,18,35.7
	c0-0.9,0.7-1.8,1.6-2c0.9-0.2,1.6,0.5,1.6,1.5c0,0.6-0.2,1.1-0.6,1.5c0.7,0.7,1.4,1.5,2.1,2.3c0.5,0.6,1.3,1,2.1,1
	c0.9,0,1.8-0.5,2.4-1.4c1.2-1.9,2.4-3.9,3.6-5.9c-0.3-0.4-0.5-0.9-0.5-1.4c0-1.1,0.7-2.1,1.7-2.1c0.9,0,1.7,1,1.7,2.1
	c0,0.5-0.2,1-0.5,1.4c0,0,0,0,0,0c1.2,2,2.4,4,3.6,5.9c0.6,0.9,1.4,1.5,2.4,1.5c0.8,0,1.5-0.3,2.1-0.9c0.7-0.8,1.4-1.6,2.2-2.3
	c-0.4-0.4-0.6-0.9-0.6-1.5c0-1,0.7-1.7,1.6-1.5c0.9,0.2,1.6,1.1,1.6,2C46,36.4,45.6,36.9,44.9,37.1z M43,48.1c0-0.5-0.3-0.8-0.8-0.7
	c-6.7,1-13.7,1-20.4,0c-0.4-0.1-0.8,0.3-0.8,0.7c0,0.7,0,1.4,0,2.1c0,0.5,0.3,1,0.8,1.1c6.7,1.6,13.7,1.6,20.4,0
	c0.4-0.1,0.8-0.6,0.8-1.1C43,49.5,43,48.8,43,48.1z"/>
</svg>
